#N canvas 978 121 553 474 10;
#X obj 462 15 ctlin 1 1;
#X obj 396 15 bendin 1;
#X obj 396 57 - 8192;
#N canvas 0 22 450 278 (subpatch) 0;
#X array \$0-loop 97346 float 2;
#X coords 0 1 97346 -1 200 140 1 0 0;
#X restore 172 15 graph;
#X obj 11 34 openpanel;
#X obj 11 59 pack s \$0;
#X msg 11 83 read -resize \$1 \$2-loop;
#X obj 11 9 loadbang;
#X obj 11 107 soundfiler;
#X obj 396 310 tabread4~ \$0-loop;
#X obj 11 132 t b f;
#X obj 11 172 samplerate~;
#X obj 11 214 /;
#X obj 38 152 s \$0-size;
#X obj 26 194 r \$0-size;
#X obj 11 237 s \$0-phfreq;
#X obj 411 180 r \$0-phfreq;
#X obj 396 202 *;
#X obj 396 229 phasor~;
#X obj 396 278 *~;
#X obj 411 257 r \$0-size;
#X obj 396 78 / 8192;
#X obj 396 161 *;
#X obj 462 39 / 127;
#X obj 462 63 + 1;
#X floatatom 340 200 5 0 0 0 - - -;
#X obj 462 88 t b f;
#X text 21 301 This instrument is based on a recorded sound \, as soon
as pd file is open \, it will ask for an audio file to be loaded \,
this audio will be written on an array and the played. The MIDI bend
control is responsible of the forward/backward reproduction of the
audio file \, and the center position will mean no sound. The farthest
from the center position \, the faster the audio file is reproduced.
The MIDI modulation control is going set the scaling factor of the
reproduction rate. Bend control values are from -1 to 1 times the sample
rate. Modulation control values are from 1 to 2 times the sample rate.
, f 45;
#X obj 431 406 writesf~ 1;
#X msg 458 363 start;
#X msg 471 383 stop;
#X msg 431 341 open funLooper.wav;
#X obj 366 392 outlet~;
#X connect 0 0 23 0;
#X connect 1 0 2 0;
#X connect 2 0 21 0;
#X connect 4 0 5 0;
#X connect 5 0 6 0;
#X connect 6 0 8 0;
#X connect 7 0 4 0;
#X connect 8 0 10 0;
#X connect 9 0 28 0;
#X connect 9 0 32 0;
#X connect 10 0 11 0;
#X connect 10 1 13 0;
#X connect 11 0 12 0;
#X connect 12 0 15 0;
#X connect 14 0 12 1;
#X connect 16 0 17 1;
#X connect 17 0 18 0;
#X connect 18 0 19 0;
#X connect 19 0 9 0;
#X connect 20 0 19 1;
#X connect 21 0 22 0;
#X connect 22 0 17 0;
#X connect 22 0 25 0;
#X connect 23 0 24 0;
#X connect 24 0 26 0;
#X connect 26 0 22 0;
#X connect 26 1 22 1;
#X connect 29 0 28 0;
#X connect 30 0 28 0;
#X connect 31 0 28 0;
