#N canvas 970 253 701 693 10;
#X obj 95 46 random 4;
#X obj 95 132 * 200;
#X obj 68 203 random 4;
#X obj 289 481 *~;
#X obj 304 351 / 2;
#X obj 335 374 *;
#X obj 68 180 metro;
#X obj 69 16 r \$0-on;
#X obj 312 131 s \$0-on;
#X obj 68 226 sel 0 1 2, f 38;
#X obj 68 267 i;
#X obj 143 267 i;
#X obj 218 268 i;
#X obj 293 267 i;
#X obj 122 112 r tempo;
#X obj 83 246 r f1;
#X obj 158 246 r f2;
#X obj 233 246 r f3;
#X obj 308 245 r f4;
#X obj 289 542 outlet~;
#X obj 327 430 r \$0-on;
#X obj 323 455 * 0.7;
#X obj 158 413 sineOscillator;
#X obj 318 403 sineOscillator;
#X obj 312 107 inlet;
#X obj 398 355 loadbang;
#X msg 399 378 0.07;
#X obj 95 86 + 1;
#X obj 287 329 / 2;
#X connect 0 0 5 1;
#X connect 0 0 27 0;
#X connect 1 0 6 1;
#X connect 2 0 9 0;
#X connect 3 0 19 0;
#X connect 4 0 5 0;
#X connect 5 0 23 0;
#X connect 6 0 2 0;
#X connect 6 0 0 0;
#X connect 7 0 6 0;
#X connect 9 0 10 0;
#X connect 9 1 11 0;
#X connect 9 2 12 0;
#X connect 9 3 13 0;
#X connect 10 0 28 0;
#X connect 11 0 28 0;
#X connect 12 0 28 0;
#X connect 13 0 28 0;
#X connect 14 0 1 1;
#X connect 15 0 10 1;
#X connect 16 0 11 1;
#X connect 17 0 12 1;
#X connect 18 0 13 1;
#X connect 20 0 21 0;
#X connect 21 0 3 1;
#X connect 22 0 3 0;
#X connect 23 0 3 0;
#X connect 24 0 8 0;
#X connect 25 0 26 0;
#X connect 26 0 23 1;
#X connect 27 0 1 0;
#X connect 28 0 4 0;
#X connect 28 0 22 0;
