#N canvas 257 268 701 693 10;
#X obj 95 107 * 200;
#X obj 95 128 t f f;
#X obj 68 178 random 4;
#X obj 287 304 line;
#X obj 289 456 *~;
#X obj 335 349 *;
#X obj 68 155 metro;
#X obj 68 11 r \$0-on;
#X obj 8 60 s \$0-on;
#X obj 8 33 inlet;
#X obj 68 201 sel 0 1 2, f 38;
#X obj 68 242 i;
#X obj 143 242 i;
#X obj 218 243 i;
#X obj 293 242 i;
#X obj 122 155 s \$0-t;
#X obj 297 265 r \$0-t;
#X obj 308 285 r \$0-on;
#X obj 122 87 r tempo;
#X obj 83 221 r f1;
#X obj 158 221 r f2;
#X obj 233 221 r f3;
#X obj 308 220 r f4;
#X obj 289 481 outlet~;
#X obj 327 405 r \$0-on;
#X obj 158 388 sineOscillator;
#X obj 318 378 sineOscillator;
#X obj 323 430 * 0.7;
#X obj 403 325 loadbang;
#X obj 304 326 / 2;
#X obj 95 82 + 1;
#X msg 401 351 0.07;
#X obj 95 57 random 4;
#X connect 0 0 1 0;
#X connect 1 0 6 1;
#X connect 1 1 15 0;
#X connect 2 0 10 0;
#X connect 3 0 25 0;
#X connect 3 0 29 0;
#X connect 4 0 23 0;
#X connect 5 0 26 0;
#X connect 6 0 2 0;
#X connect 6 0 32 0;
#X connect 7 0 6 0;
#X connect 9 0 8 0;
#X connect 10 0 11 0;
#X connect 10 1 12 0;
#X connect 10 2 13 0;
#X connect 10 3 14 0;
#X connect 11 0 3 0;
#X connect 12 0 3 0;
#X connect 13 0 3 0;
#X connect 14 0 3 0;
#X connect 16 0 3 1;
#X connect 17 0 3 2;
#X connect 18 0 0 1;
#X connect 19 0 11 1;
#X connect 20 0 12 1;
#X connect 21 0 13 1;
#X connect 22 0 14 1;
#X connect 24 0 27 0;
#X connect 25 0 4 0;
#X connect 26 0 4 0;
#X connect 27 0 4 1;
#X connect 28 0 31 0;
#X connect 29 0 5 0;
#X connect 30 0 0 0;
#X connect 31 0 26 1;
#X connect 32 0 5 1;
#X connect 32 0 30 0;
