#N struct 1009-f float x;
#N canvas 657 78 1002 704 10;
#X obj 32 93 tgl 15 0 empty empty DSP-ON/OFF 17 7 0 10 -262144 -1 -1
1 1;
#X obj 23 13 loadbang;
#X obj 113 86 MIDIanal;
#X msg 23 164 \; pd dsp \$1;
#X obj 170 203 cyclone/coll zeroorder;
#C restore;
#X msg 175 174 length;
#X floatatom 295 309 5 0 0 0 - - -;
#X obj 225 371 random;
#X obj 226 395 cyclone/coll zeroorder;
#C restore;
#X obj 210 421 i;
#X obj 96 508 makenote;
#X msg 529 54 100;
#X obj 214 483 + 10;
#X obj 416 266 cyclone/coll firstorder;
#C restore;
#X obj 401 434 i;
#X obj 210 452 makechord;
#X obj 401 460 makechord;
#X obj 416 295 t l l;
#X obj 515 311 list length;
#X obj 515 335 t b f;
#X obj 515 361 random;
#X obj 516 382 + 1;
#X obj 416 407 cyclone/zl nth \$1;
#X obj 401 482 + 10;
#X obj 549 385 r first;
#X floatatom 549 408 5 0 0 0 - - -;
#X obj 214 510 s note;
#X obj 401 511 s note;
#X obj 67 468 r note;
#X msg 359 290 bang;
#X msg 128 159 bang;
#X obj 813 312 r second;
#X obj 813 336 list split 2;
#X obj 813 364 unpack;
#X obj 812 389 i;
#X obj 814 442 i;
#X floatatom 812 411 5 0 0 0 - - -;
#X floatatom 814 464 5 0 0 0 - - -;
#X obj 656 365 cyclone/zl nth \$1;
#X obj 656 227 cyclone/coll secondorder;
#C restore;
#X obj 656 251 t l l;
#X obj 641 489 i;
#X obj 641 513 makechord;
#X obj 641 553 s note;
#X msg 570 165 bang;
#X obj 656 172 cyclone/sprintf %i-%i;
#X obj 755 277 list length;
#X obj 755 298 t b f;
#X obj 755 321 random;
#X obj 755 344 + 1;
#X obj 656 194 cyclone/tosymbol;
#X obj 655 68 list;
#X obj 655 90 list split 2;
#X obj 656 128 unpack 0 0;
#X floatatom 656 150 5 0 0 0 - - -;
#X floatatom 779 151 5 0 0 0 - - -;
#X msg 655 109 \$2 \$1;
#X obj 399 100 vradio 15 1 0 3 empty empty empty 0 -8 0 10 -262144
-1 -1 0;
#X obj 642 533 + 10;
#X text 415 98 Zero Order;
#X text 415 115 First Order;
#X text 416 132 Second Order;
#X floatatom 371 154 5 0 0 0 - - -;
#X msg 272 38 0;
#X obj 400 22 receive ready;
#X obj 32 123 tgl 15 0 empty empty MIDI_Ready 17 7 0 10 -262144 -1
-1 0 1;
#X obj 410 214 sel 0 1 2;
#X obj 410 187 i;
#X text 382 82 MARKOV Algorithmic;
#X obj 75 546 outlet;
#X obj 126 543 outlet;
#X obj 312 10 inlet;
#X obj 109 11 inlet;
#X obj 179 10 inlet;
#X obj 1088 24 notein;
#X obj 1079 49 stripnote;
#X obj 1079 69 t b;
#X obj 1130 69 send velocity;
#X obj 1079 89 send action;
#X obj 569 6 / 127;
#X obj 569 28 * 1990;
#X obj 569 52 + 10;
#X floatatom 540 115 5 0 0 0 - - -;
#X text 506 98 Note duration ms;
#X connect 0 0 3 0;
#X connect 1 0 0 0;
#X connect 1 0 11 0;
#X connect 1 0 63 0;
#X connect 4 0 6 0;
#X connect 5 0 4 0;
#X connect 6 0 7 1;
#X connect 7 0 8 0;
#X connect 8 0 9 1;
#X connect 9 0 15 0;
#X connect 10 0 69 0;
#X connect 10 1 70 0;
#X connect 11 0 82 0;
#X connect 12 0 26 0;
#X connect 13 0 17 0;
#X connect 14 0 16 0;
#X connect 14 0 13 0;
#X connect 15 0 12 0;
#X connect 16 0 23 0;
#X connect 17 0 22 0;
#X connect 17 1 18 0;
#X connect 18 0 19 0;
#X connect 19 0 20 0;
#X connect 19 1 20 1;
#X connect 20 0 21 0;
#X connect 21 0 22 1;
#X connect 22 0 14 1;
#X connect 23 0 27 0;
#X connect 24 0 25 0;
#X connect 25 0 14 1;
#X connect 28 0 10 0;
#X connect 29 0 14 0;
#X connect 30 0 7 0;
#X connect 30 0 9 0;
#X connect 30 0 5 0;
#X connect 31 0 32 0;
#X connect 32 0 33 0;
#X connect 33 0 34 0;
#X connect 33 1 35 0;
#X connect 34 0 36 0;
#X connect 35 0 37 0;
#X connect 36 0 35 1;
#X connect 37 0 41 1;
#X connect 37 0 51 0;
#X connect 38 0 34 0;
#X connect 39 0 40 0;
#X connect 40 0 38 0;
#X connect 40 1 46 0;
#X connect 41 0 42 0;
#X connect 42 0 58 0;
#X connect 44 0 41 0;
#X connect 44 0 35 0;
#X connect 45 0 50 0;
#X connect 46 0 47 0;
#X connect 47 0 48 0;
#X connect 47 1 48 1;
#X connect 48 0 49 0;
#X connect 49 0 38 1;
#X connect 50 0 39 0;
#X connect 51 0 52 0;
#X connect 52 0 51 1;
#X connect 52 0 56 0;
#X connect 52 2 51 1;
#X connect 53 0 54 0;
#X connect 53 1 55 0;
#X connect 54 0 45 0;
#X connect 55 0 45 1;
#X connect 56 0 53 0;
#X connect 57 0 62 0;
#X connect 58 0 43 0;
#X connect 62 0 67 1;
#X connect 63 0 57 0;
#X connect 64 0 65 0;
#X connect 66 0 30 0;
#X connect 66 1 29 0;
#X connect 66 2 44 0;
#X connect 67 0 66 0;
#X connect 71 0 79 0;
#X connect 72 0 67 0;
#X connect 73 0 10 1;
#X connect 74 0 75 0;
#X connect 74 1 75 1;
#X connect 75 0 76 0;
#X connect 75 1 77 0;
#X connect 76 0 78 0;
#X connect 79 0 80 0;
#X connect 80 0 81 0;
#X connect 81 0 82 0;
#X connect 82 0 10 2;
#X coords 0 -1 1 1 600 70 2 20 80;
