#N canvas 0 39 1160 810 10;
#X obj 94 444 bp~ 600 3;
#X obj 94 531 *~ 0.3;
#X obj 86 564 dac~;
#X obj 171 386 + 100;
#X obj 145 90 vsl 15 128 10 2000 0 0 empty empty attack 0 -9 0 10 -262144
-1 -1 5680 1;
#X obj 182 89 vsl 15 128 10 2000 0 0 empty empty decay 0 -9 0 10 -262144
-1 -1 1851 1;
#X floatatom 182 227 5 0 0 0 - - env_d;
#X floatatom 145 227 5 0 0 0 - - env_a;
#N canvas 227 258 779 496 envelope 0;
#X obj 94 230 line;
#X msg 32 179 0 \$1;
#X msg 141 179 1 \$1;
#X obj 32 86 t b b;
#X obj 32 116 del 1000;
#X obj 32 146 f 50;
#X obj 141 143 f 50;
#X obj 204 32 inlet decay;
#X obj 119 32 inlet attack;
#X obj 26 32 inlet trigger;
#X obj 94 262 outlet;
#X obj 119 62 t f f;
#X text 330 86 Float start numbers by temporarly values.;
#X text 330 25 Envelope is created by a line object \, creating messages.Line
object take the target and adress this target to another object over
the time given. 0 and 1 are destination value \, \$1 is defined by
the inlet value.;
#X text 330 121 When the bang is clicked any value stored on the right
inlet will be the output to start the envelope generator. Delay from
right to left allows the decay to start 1000 ms after the attack as
they are consecutive processes.;
#X connect 0 0 10 0;
#X connect 1 0 0 0;
#X connect 2 0 0 0;
#X connect 3 0 4 0;
#X connect 3 1 6 0;
#X connect 4 0 5 0;
#X connect 5 0 1 0;
#X connect 6 0 2 0;
#X connect 7 0 5 1;
#X connect 8 0 11 0;
#X connect 9 0 3 0;
#X connect 11 0 4 1;
#X connect 11 1 6 1;
#X restore 158 291 pd envelope;
#X obj 156 259 bng 15 250 50 0 empty note_on empty 17 7 0 10 -262144
-1 -1;
#X obj 171 344 * 4000;
#N canvas 278 142 937 620 oscillator 0;
#X obj 40 362 -~ 0.5;
#X obj 174 359 -~ 0.5;
#X obj 103 396 +~;
#X obj 103 426 outlet~;
#X floatatom 41 293 5 0 0 0 - - -;
#X floatatom 174 303 5 0 0 0 - - -;
#X obj 42 266 mtof;
#X obj 174 256 + 7;
#X obj 174 277 mtof;
#X obj 174 328 phasor~;
#X obj 40 328 phasor~;
#X text 279 125 The signal in the first oscillator is played at the
fundamental frequency while the signal in the second oscillator is
in fifth scale. Both signals are centered in the waveform graph.;
#X text 280 23 Notein get MIDI information from the controller. MIDI
notes are sent to the oscillator with different velocity according
to the key pressing through the object notein. Octaves can be selected
in the MIDI controller.;
#X text 279 88 Stripnote remove the note off and when release the key
it avoids to bang the envelope again.;
#X obj 91 75 inlet;
#X obj 162 76 inlet;
#X connect 0 0 2 0;
#X connect 1 0 2 1;
#X connect 2 0 3 0;
#X connect 4 0 10 0;
#X connect 5 0 9 0;
#X connect 6 0 4 0;
#X connect 7 0 8 0;
#X connect 8 0 5 0;
#X connect 9 0 1 0;
#X connect 10 0 0 0;
#X connect 14 0 6 0;
#X connect 14 0 7 0;
#X connect 15 0 7 1;
#X restore 60 389 pd oscillator;
#N canvas 1156 241 556 544 mastervolume 0;
#X floatatom 19 285 5 0 0 0 - - -;
#X obj 19 308 dbtorms;
#X obj 22 157 hsl 127 15 0 127 0 0 empty empty empty -2 -8 0 10 -262144
-1 -1 9921 1;
#X obj 19 332 outlet;
#X text 161 42 Amplitude dB [0-100];
#X text 161 61 The amplitude is converted from dB to rms with dbtorms.
As velocity is a parameter defined from 0 to 127 \, a factor of 0.78
to transform it from 0 to 100 is applied.;
#X obj 19 18 inlet;
#X obj 19 183 / 127;
#X obj 19 260 * 100;
#X obj 64 18 r note_on;
#X obj 78 86 +;
#X obj 43 113 del;
#X floatatom 72 56 5 0 0 0 - env_a -;
#X floatatom 107 56 5 0 0 0 - env_d -;
#X obj 108 86 +;
#X msg 43 135 0;
#X obj 19 211 * 0.1;
#X obj 19 236 + 0.75;
#X connect 0 0 1 0;
#X connect 1 0 3 0;
#X connect 2 0 7 0;
#X connect 6 0 2 0;
#X connect 7 0 16 0;
#X connect 8 0 0 0;
#X connect 9 0 11 0;
#X connect 10 0 11 1;
#X connect 11 0 15 0;
#X connect 12 0 10 0;
#X connect 12 0 14 1;
#X connect 13 0 10 1;
#X connect 13 0 14 0;
#X connect 14 0 11 1;
#X connect 15 0 0 0;
#X connect 16 0 17 0;
#X connect 17 0 8 0;
#X restore 175 470 pd mastervolume;
#X text 685 106 The oscillators are controlled by a MIDI Controller.
Plug a MIDI Controller to your computer. Go to PD>Preferences>MIDI.
Input devices>Select your MIDI Controller from the list.;
#X text 684 152 An envelope is connected to the filter output. It controls
the behaviour of the signal modelling the parameters attack and decay.
Envelope scale is defined by a factor of 4000Hz and an offset of 100Hz.
The waveform is plotted in an array.;
#X text 685 214 Bang receives note sent by the MIDI Controller.;
#X text 684 25 Substractive Synthesizer This monophonic synthesizer
consist of two oscillators with a sawtooth waveform rich in odd and
even harmonics. The signal is filtered with a bandpass filter that
substract the harmonics only passing a the signal at the center frequency
\, producing this type of synthesis. Other frequencies are attenuated.
;
#X obj 53 27 inlet;
#X obj 96 26 inlet;
#X obj 68 310 send note_on;
#X obj 68 286 t b;
#X obj 380 13 loadbang;
#X msg 365 55 900;
#X msg 409 56 300;
#X obj 189 252 r env_a;
#X obj 221 272 r env_d;
#X msg 449 56 3;
#X obj 177 421 r bpQ;
#X msg 491 55 7;
#X obj 79 362 r saw_dif;
#X obj 140 27 inlet;
#X obj 189 26 inlet;
#X obj 234 20 inlet;
#X obj 278 28 inlet;
#X obj 236 89 vsl 15 128 0.04 4 1 0 empty empty bp_Q 0 -9 0 10 -262144
-1 -1 11907 1;
#X floatatom 236 226 5 0 0 0 - - bpQ;
#X obj 273 89 vsl 15 130 0 12 0 0 empty empty P-Dif 0 -9 0 10 -262144
-1 -1 7525 1;
#X floatatom 273 226 5 0 0 0 - - saw_dif;
#X obj 478 147 / 127;
#X obj 478 190 + 10;
#X obj 478 168 * 1990;
#X obj 521 148 / 127;
#X obj 521 191 + 10;
#X obj 521 169 * 1990;
#X obj 567 148 / 127;
#X obj 611 147 / 127;
#X obj 612 169 * 12;
#X obj 567 169 * 3.96;
#X obj 567 191 + 0.04;
#X obj 152 509 * 1;
#X obj 329 91 vsl 15 128 0 1 0 0 empty empty empty 0 -9 0 10 -262144
-1 -1 8026 1;
#X floatatom 329 226 5 0 0 0 - - -;
#X text 312 72 Volumen;
#X msg 529 55 0.632;
#X msg 250 438 100;
#X obj 42 117 stripnote;
#X connect 0 0 1 0;
#X connect 1 0 2 0;
#X connect 1 0 2 1;
#X connect 3 0 0 1;
#X connect 4 0 7 0;
#X connect 5 0 6 0;
#X connect 8 0 10 0;
#X connect 9 0 8 0;
#X connect 10 0 3 0;
#X connect 11 0 0 0;
#X connect 12 0 49 0;
#X connect 17 0 55 0;
#X connect 18 0 55 1;
#X connect 20 0 19 0;
#X connect 21 0 22 0;
#X connect 21 0 23 0;
#X connect 21 0 26 0;
#X connect 21 0 28 0;
#X connect 21 0 53 0;
#X connect 21 0 54 0;
#X connect 22 0 4 0;
#X connect 23 0 5 0;
#X connect 24 0 8 1;
#X connect 25 0 8 2;
#X connect 26 0 34 0;
#X connect 27 0 0 2;
#X connect 28 0 36 0;
#X connect 29 0 11 1;
#X connect 30 0 38 0;
#X connect 31 0 41 0;
#X connect 32 0 44 0;
#X connect 33 0 45 0;
#X connect 34 0 35 0;
#X connect 36 0 37 0;
#X connect 38 0 40 0;
#X connect 39 0 4 0;
#X connect 40 0 39 0;
#X connect 41 0 43 0;
#X connect 42 0 5 0;
#X connect 43 0 42 0;
#X connect 44 0 47 0;
#X connect 45 0 46 0;
#X connect 46 0 36 0;
#X connect 47 0 48 0;
#X connect 48 0 34 0;
#X connect 49 0 1 1;
#X connect 50 0 51 0;
#X connect 51 0 49 1;
#X connect 53 0 50 0;
#X connect 54 0 12 0;
#X connect 55 0 11 0;
#X connect 55 1 20 0;
#X connect 55 1 12 0;
#X coords 0 -1 1 1 240 180 2 130 70;
