#N canvas 521 115 1050 556 10;
#X obj 35 216 randMelody;
#X obj 35 190 tgl 15 0 empty empty empty 17 7 0 10 -262144 -1 -1 0
1;
#X obj 99 527 dac~;
#X obj 929 234 s tempo;
#X obj 110 216 randBass;
#X obj 110 191 tgl 15 0 empty empty empty 17 7 0 10 -262144 -1 -1 1
1;
#X obj 44 37 keyname;
#X symbolatom 101 68 10 0 0 0 - - -;
#X floatatom 44 63 5 0 0 0 - - -;
#X obj 46 87 pack \$1 symbol;
#X msg 46 110 \$2 \$1;
#X obj 92 157 sel 1;
#X obj 45 157 sel 1;
#X obj 46 131 route Right Left Up Down Space Return;
#X obj 175 216 Karplus;
#X obj 139 159 sel 1;
#X obj 855 170 s kdel;
#X obj 797 149 s ktone;
#X obj 49 308 vsl 15 128 0.1 1 1 0 empty empty empty 0 -9 0 10 -262144
-1 -1 0 1;
#X obj 34 460 *~;
#X obj 126 308 vsl 15 128 0.1 1 1 0 empty empty empty 0 -9 0 10 -262144
-1 -1 0 1;
#X obj 110 460 *~;
#X obj 190 305 vsl 15 128 0.1 1 1 0 empty empty empty 0 -9 0 10 -262144
-1 -1 0 1;
#X obj 175 458 *~;
#X floatatom 49 442 5 0 0 0 - - -;
#X floatatom 125 442 5 0 0 0 - - -;
#X floatatom 190 440 5 0 0 0 - - -;
#X floatatom 552 61 5 0 0 0 - - -;
#X floatatom 597 61 5 0 0 0 - - -;
#X obj 546 134 pack 0 0 0;
#X obj 552 36 notein 1;
#X obj 552 83 pack 0 0;
#X obj 552 108 poly 4 1;
#X obj 503 180 route 1;
#X obj 553 180 route 2;
#X obj 602 180 route 3;
#X obj 651 180 route 4;
#X obj 503 203 unpack;
#X obj 553 204 unpack;
#X obj 602 203 unpack;
#X obj 651 203 unpack;
#X obj 503 230 mtof;
#X obj 553 230 mtof;
#X obj 602 230 mtof;
#X obj 651 231 mtof;
#X obj 524 262 s f1;
#X obj 559 262 s f2;
#X obj 592 262 s f3;
#X obj 624 262 s f4;
#X obj 917 57 ctlin 7 1;
#X obj 929 172 /;
#X obj 917 126 t b f;
#X msg 902 147 60000;
#X obj 929 192 / 4;
#X floatatom 929 214 5 0 0 0 - - -;
#X obj 917 79 * 2;
#X obj 917 100 + 60;
#X obj 241 217 funLooper;
#X obj 256 303 vsl 15 128 0.1 1 1 0 empty empty empty 0 -9 0 10 -262144
-1 -1 0 1;
#X obj 241 456 *~;
#X floatatom 256 438 5 0 0 0 - - -;
#X obj 49 258 ctlin 21 1;
#X obj 49 280 / 127;
#X obj 126 281 / 127;
#X obj 126 259 ctlin 22 1;
#X obj 192 275 / 127;
#X obj 192 253 ctlin 23 1;
#X obj 261 275 / 127;
#X obj 261 253 ctlin 24 1;
#X obj 584 459 ArduinoController;
#X obj 393 149 r analog0;
#X obj 828 59 r analog1;
#X floatatom 797 88 5 0 0 0 - - -;
#X floatatom 855 88 5 0 0 0 - - -;
#X floatatom 855 149 5 0 0 0 - - -;
#X obj 855 128 * 1000;
#X floatatom 797 129 5 0 0 0 - - -;
#X obj 797 108 * 50;
#X obj 855 108 + 0.7;
#X obj 352 218 tonesec;
#X obj 327 190 sel 1;
#X obj 370 295 vsl 15 128 0.1 1 1 0 empty empty empty 0 -9 0 10 -262144
-1 -1 0 1;
#X obj 355 447 *~;
#X floatatom 370 429 5 0 0 0 - - -;
#X obj 375 266 / 127;
#X obj 375 244 ctlin 25 1;
#X obj 393 193 + 21;
#X obj 393 172 * 87;
#X obj 371 127 r tempo;
#X connect 0 0 19 0;
#X connect 1 0 0 0;
#X connect 4 0 21 0;
#X connect 5 0 4 0;
#X connect 6 0 8 0;
#X connect 6 1 7 0;
#X connect 7 0 9 1;
#X connect 8 0 9 0;
#X connect 9 0 10 0;
#X connect 10 0 13 0;
#X connect 11 0 5 0;
#X connect 12 0 1 0;
#X connect 13 0 12 0;
#X connect 13 1 15 0;
#X connect 13 2 80 0;
#X connect 13 3 11 0;
#X connect 14 0 23 0;
#X connect 15 0 14 0;
#X connect 18 0 24 0;
#X connect 19 0 2 0;
#X connect 19 0 2 1;
#X connect 20 0 25 0;
#X connect 21 0 2 0;
#X connect 21 0 2 1;
#X connect 22 0 26 0;
#X connect 23 0 2 0;
#X connect 23 0 2 1;
#X connect 24 0 19 1;
#X connect 25 0 21 1;
#X connect 26 0 23 1;
#X connect 27 0 31 0;
#X connect 28 0 31 1;
#X connect 29 0 33 0;
#X connect 29 0 34 0;
#X connect 29 0 35 0;
#X connect 29 0 36 0;
#X connect 30 0 27 0;
#X connect 30 1 28 0;
#X connect 31 0 32 0;
#X connect 32 0 29 0;
#X connect 32 1 29 1;
#X connect 32 2 29 2;
#X connect 33 0 37 0;
#X connect 34 0 38 0;
#X connect 35 0 39 0;
#X connect 36 0 40 0;
#X connect 37 0 41 0;
#X connect 38 0 42 0;
#X connect 39 0 43 0;
#X connect 40 0 44 0;
#X connect 41 0 45 0;
#X connect 42 0 46 0;
#X connect 43 0 47 0;
#X connect 44 0 48 0;
#X connect 49 0 55 0;
#X connect 50 0 53 0;
#X connect 51 0 52 0;
#X connect 51 1 50 1;
#X connect 52 0 50 0;
#X connect 53 0 54 0;
#X connect 54 0 3 0;
#X connect 55 0 56 0;
#X connect 56 0 51 0;
#X connect 57 0 59 0;
#X connect 58 0 60 0;
#X connect 59 0 2 0;
#X connect 59 0 2 1;
#X connect 60 0 59 1;
#X connect 61 0 62 0;
#X connect 62 0 18 0;
#X connect 63 0 20 0;
#X connect 64 0 63 0;
#X connect 65 0 22 0;
#X connect 66 0 65 0;
#X connect 67 0 58 0;
#X connect 68 0 67 0;
#X connect 70 0 87 0;
#X connect 71 0 73 0;
#X connect 71 0 72 0;
#X connect 72 0 77 0;
#X connect 73 0 78 0;
#X connect 74 0 16 0;
#X connect 75 0 74 0;
#X connect 76 0 17 0;
#X connect 77 0 76 0;
#X connect 78 0 75 0;
#X connect 79 0 82 0;
#X connect 80 0 79 0;
#X connect 81 0 83 0;
#X connect 82 0 2 0;
#X connect 82 0 2 1;
#X connect 83 0 82 1;
#X connect 84 0 81 0;
#X connect 85 0 84 0;
#X connect 86 0 79 2;
#X connect 87 0 86 0;
#X connect 88 0 79 1;
