#N canvas 434 187 1601 524 10;
#X obj 160 243 pduino/arduino;
#X obj 28 28 bng 15 250 50 0 empty empty Show_devices 17 7 0 10 -262144
-1 -1;
#X msg 162 202 open \$1;
#X floatatom 115 48 5 0 0 0 Select_Port - -;
#X obj 153 174 i;
#X obj 28 47 bng 15 250 50 0 empty empty empty 17 7 0 10 -262144 -1
-1;
#X obj 161 294 spigot;
#X obj 161 322 route analog digital;
#X obj 28 67 tgl 15 0 empty empty Listen_Arduino 17 7 0 10 -262144
-1 -1 0 1;
#X obj 161 348 route 0 1 2 3 4 5;
#X obj 31 418 s analog0;
#X obj 92 418 s analog1;
#X obj 153 418 s analog2;
#X obj 214 418 s analog3;
#X obj 275 418 s analog4;
#X obj 336 418 s analog5;
#X obj 735 358 route 2 3 4 5 6 7 8 9 10 11 12 13 14 15 16 17 18 19
;
#X obj 290 473 s digital2;
#X obj 356 473 s digital3;
#X obj 422 473 s digital4;
#X obj 488 473 s digital5;
#X obj 554 473 s digital6;
#X obj 620 473 s digital7;
#X obj 686 473 s digital8;
#X obj 752 473 s digital9;
#X obj 818 473 s digital10;
#X obj 890 473 s digital11;
#X obj 962 473 s digital12;
#X obj 1034 473 s digital13;
#X obj 1106 473 s digital14;
#X obj 1178 473 s digital15;
#X obj 1250 473 s digital16;
#X obj 1322 473 s digital17;
#X obj 1394 473 s digital18;
#X obj 1466 473 s digital19;
#X floatatom 31 397 5 0 0 0 - - -;
#X floatatom 92 397 5 0 0 0 - - -;
#X floatatom 153 398 5 0 0 0 - - -;
#X floatatom 214 398 5 0 0 0 - - -;
#X floatatom 275 398 5 0 0 0 - - -;
#X floatatom 336 398 5 0 0 0 - - -;
#X obj 290 455 tgl 15 0 empty empty empty 17 7 0 10 -262144 -1 -1 0
1;
#X obj 356 455 tgl 15 0 empty empty empty 17 7 0 10 -262144 -1 -1 0
1;
#X obj 422 455 tgl 15 0 empty empty empty 17 7 0 10 -262144 -1 -1 0
1;
#X obj 488 455 tgl 15 0 empty empty empty 17 7 0 10 -262144 -1 -1 0
1;
#X obj 554 455 tgl 15 0 empty empty empty 17 7 0 10 -262144 -1 -1 0
1;
#X obj 620 455 tgl 15 0 empty empty empty 17 7 0 10 -262144 -1 -1 0
1;
#X obj 686 455 tgl 15 0 empty empty empty 17 7 0 10 -262144 -1 -1 0
1;
#X obj 752 455 tgl 15 0 empty empty empty 17 7 0 10 -262144 -1 -1 0
1;
#X obj 818 455 tgl 15 0 empty empty empty 17 7 0 10 -262144 -1 -1 0
1;
#X obj 890 455 tgl 15 0 empty empty empty 17 7 0 10 -262144 -1 -1 0
1;
#X obj 962 455 tgl 15 0 empty empty empty 17 7 0 10 -262144 -1 -1 0
1;
#X obj 1034 455 tgl 15 0 empty empty empty 17 7 0 10 -262144 -1 -1
0 1;
#X obj 1106 455 tgl 15 0 empty empty empty 17 7 0 10 -262144 -1 -1
0 1;
#X obj 1178 455 tgl 15 0 empty empty empty 17 7 0 10 -262144 -1 -1
0 1;
#X obj 1250 455 tgl 15 0 empty empty empty 17 7 0 10 -262144 -1 -1
0 1;
#X obj 1322 455 tgl 15 0 empty empty empty 17 7 0 10 -262144 -1 -1
0 1;
#X obj 1394 455 tgl 15 0 empty empty empty 17 7 0 10 -262144 -1 -1
0 1;
#X obj 1466 455 tgl 15 0 empty empty empty 17 7 0 10 -262144 -1 -1
0 1;
#X text 189 32 Activate Analog;
#X text 331 32 Activate Digital;
#X floatatom 268 59 5 0 0 0 Analog_Pin - -;
#X floatatom 415 60 5 0 0 0 Digital_Pin - -;
#X obj 183 58 bng 15 250 50 0 empty empty empty 17 7 0 10 -262144 -1
-1;
#X obj 324 59 bng 15 250 50 0 empty empty empty 17 7 0 10 -262144 -1
-1;
#X obj 280 179 i;
#X obj 435 179 i;
#X obj 295 155 + 14;
#X msg 280 208 pinMode \$1 analog;
#X msg 435 208 pinMode \$1 input;
#X msg 109 202 devices;
#X connect 0 0 6 0;
#X connect 1 0 70 0;
#X connect 2 0 0 0;
#X connect 3 0 4 1;
#X connect 4 0 2 0;
#X connect 5 0 4 0;
#X connect 6 0 7 0;
#X connect 7 0 9 0;
#X connect 7 1 16 0;
#X connect 8 0 6 1;
#X connect 9 0 35 0;
#X connect 9 1 36 0;
#X connect 9 2 37 0;
#X connect 9 3 38 0;
#X connect 9 4 39 0;
#X connect 9 5 40 0;
#X connect 16 0 41 0;
#X connect 16 1 42 0;
#X connect 16 2 43 0;
#X connect 16 3 44 0;
#X connect 16 4 45 0;
#X connect 16 5 46 0;
#X connect 16 6 47 0;
#X connect 16 7 48 0;
#X connect 16 8 49 0;
#X connect 16 9 50 0;
#X connect 16 10 51 0;
#X connect 16 11 52 0;
#X connect 16 12 53 0;
#X connect 16 13 54 0;
#X connect 16 14 55 0;
#X connect 16 15 56 0;
#X connect 16 16 57 0;
#X connect 16 17 58 0;
#X connect 35 0 10 0;
#X connect 36 0 11 0;
#X connect 37 0 12 0;
#X connect 38 0 13 0;
#X connect 39 0 14 0;
#X connect 40 0 15 0;
#X connect 41 0 17 0;
#X connect 42 0 18 0;
#X connect 43 0 19 0;
#X connect 44 0 20 0;
#X connect 45 0 21 0;
#X connect 46 0 22 0;
#X connect 47 0 23 0;
#X connect 48 0 24 0;
#X connect 49 0 25 0;
#X connect 50 0 26 0;
#X connect 51 0 27 0;
#X connect 52 0 28 0;
#X connect 53 0 29 0;
#X connect 54 0 30 0;
#X connect 55 0 31 0;
#X connect 56 0 32 0;
#X connect 57 0 33 0;
#X connect 58 0 34 0;
#X connect 61 0 67 0;
#X connect 62 0 66 1;
#X connect 63 0 65 0;
#X connect 64 0 66 0;
#X connect 65 0 68 0;
#X connect 66 0 69 0;
#X connect 67 0 65 1;
#X connect 68 0 0 0;
#X connect 69 0 0 0;
#X connect 70 0 0 0;
#X coords 0 -1 1 1 445 70 2 20 20;
