#N canvas 115 46 758 975 10;
#X obj 330 223 cyclone/midiparse;
#X obj 288 160 cyclone/seq;
#X obj 294 255 unpack;
#X floatatom 294 289 5 0 0 0 - - -;
#X floatatom 330 289 5 0 0 0 - - -;
#X floatatom 367 289 5 0 0 0 - - -;
#X msg 417 136 stop;
#X msg 275 73 start -1;
#X msg 415 114 tick;
#X obj 491 48 tgl 15 0 empty empty empty 17 7 0 10 -262144 -1 -1 0
1;
#X floatatom 474 163 5 0 0 0 - - -;
#X obj 474 121 int;
#X obj 504 121 + 1;
#X obj 491 69 metro 1;
#X msg 482 16 0;
#X msg 524 95 0;
#X obj 310 341 pack f f f f;
#X msg 310 377 \$3 \$1 \$2 \$4;
#X obj 286 445 unpack f f f;
#X obj 310 410 route;
#X obj 176 764 cyclone/coll firstorder;
#C restore;
#X obj 176 691 list split 2;
#X msg 176 723 merge \$2 \$1;
#X msg 319 692 clear;
#X msg 280 691 open;
#X obj 384 855 cyclone/coll secondorder;
#C restore;
#X obj 383 690 list split 3;
#X msg 383 713 \$3 \$2 \$1;
#X obj 383 735 unpack 0 0 0;
#X msg 384 831 merge \$1 \$2;
#X obj 495 588 spigot;
#X obj 472 561 pack f f;
#X msg 495 616 merge \$2 \$1;
#X obj 495 669 cyclone/coll chords;
#C restore;
#X obj 66 28 inlet;
#X obj 109 28 inlet;
#X obj 209 908 outlet;
#X obj 209 879 t b;
#X obj 528 19 inlet;
#X obj 197 25 inlet;
#X obj 312 908 outlet;
#X obj 607 12 inlet;
#X obj 384 760 cyclone/sprintf %i-%i;
#X obj 384 806 pack symbol 0;
#X obj 384 783 cyclone/tosymbol;
#X obj 22 761 cyclone/coll zeroorder;
#C restore;
#X obj 22 715 pack 0 0;
#X obj 22 669 int;
#X obj 54 669 + 1;
#X msg 22 610 0;
#X obj 116 588 t b f;
#X msg 342 107 start;
#X obj 655 15 inlet;
#X obj 387 906 outlet;
#X msg 142 461 bang;
#X obj 383 637 list;
#X obj 201 630 list;
#X obj 379 517 - 10;
#X obj 178 815 s first;
#X obj 511 717 s second;
#X connect 0 0 2 0;
#X connect 0 6 5 0;
#X connect 1 0 0 0;
#X connect 1 1 14 0;
#X connect 1 1 40 0;
#X connect 2 0 3 0;
#X connect 2 1 4 0;
#X connect 3 0 16 0;
#X connect 4 0 16 1;
#X connect 5 0 16 2;
#X connect 5 0 53 0;
#X connect 6 0 1 0;
#X connect 7 0 1 0;
#X connect 8 0 1 0;
#X connect 9 0 13 0;
#X connect 10 0 16 3;
#X connect 11 0 12 0;
#X connect 11 0 10 0;
#X connect 12 0 11 1;
#X connect 13 0 8 0;
#X connect 13 0 11 0;
#X connect 14 0 9 0;
#X connect 15 0 11 0;
#X connect 15 0 10 0;
#X connect 15 0 37 0;
#X connect 16 0 17 0;
#X connect 17 0 19 0;
#X connect 18 0 57 0;
#X connect 18 1 30 1;
#X connect 18 2 31 1;
#X connect 19 0 18 0;
#X connect 21 0 22 0;
#X connect 21 0 56 1;
#X connect 21 2 56 1;
#X connect 21 2 58 0;
#X connect 22 0 20 0;
#X connect 23 0 20 0;
#X connect 23 0 25 0;
#X connect 23 0 33 0;
#X connect 23 0 45 0;
#X connect 24 0 20 0;
#X connect 24 0 25 0;
#X connect 24 0 33 0;
#X connect 24 0 45 0;
#X connect 26 0 27 0;
#X connect 26 0 55 1;
#X connect 26 2 55 1;
#X connect 26 2 59 0;
#X connect 27 0 28 0;
#X connect 28 0 42 0;
#X connect 28 1 42 1;
#X connect 28 2 43 1;
#X connect 29 0 25 0;
#X connect 30 0 32 0;
#X connect 31 0 30 0;
#X connect 32 0 33 0;
#X connect 34 0 1 0;
#X connect 35 0 7 0;
#X connect 35 0 15 0;
#X connect 35 0 23 0;
#X connect 35 0 49 0;
#X connect 35 0 54 0;
#X connect 37 0 36 0;
#X connect 38 0 9 0;
#X connect 39 0 19 1;
#X connect 41 0 50 0;
#X connect 41 0 55 0;
#X connect 41 0 56 0;
#X connect 42 0 44 0;
#X connect 43 0 29 0;
#X connect 44 0 43 0;
#X connect 46 0 45 0;
#X connect 47 0 46 0;
#X connect 47 0 48 0;
#X connect 48 0 47 1;
#X connect 49 0 47 1;
#X connect 50 0 47 0;
#X connect 50 1 46 1;
#X connect 51 0 1 0;
#X connect 52 0 45 0;
#X connect 52 0 20 0;
#X connect 52 0 25 0;
#X connect 54 0 55 1;
#X connect 54 0 56 1;
#X connect 55 0 26 0;
#X connect 56 0 21 0;
#X connect 57 0 31 0;
