#N struct 1007-f float x;
#N canvas 175 308 1505 749 10;
#X obj 39 78 AlgoSequencer;
#X obj 1207 77 stripnote;
#X obj 1207 103 t b;
#X obj 632 59 receive duration;
#X obj 39 150 send note_1;
#X obj 632 149 send vel_1;
#X obj 32 359 NereaSynth;
#X obj 332 240 FranklinSynth;
#X obj 125 275 r nereaa;
#X obj 171 293 r neread;
#X obj 32 239 r nereanote;
#X obj 78 257 r nereavel;
#X obj 218 311 r nereaq;
#X obj 265 330 r nereap;
#X obj 332 203 r fnote;
#X obj 372 221 r fvel;
#X obj 412 221 r fh1;
#X obj 452 221 r fh2;
#X obj 492 221 r fh3;
#X obj 532 221 r fh4;
#X obj 573 221 r fh5;
#X obj 613 220 r fd1;
#X obj 653 221 r fd2;
#X obj 692 221 r fd3;
#X obj 733 221 r fd4;
#X obj 774 221 r fd5;
#X obj 814 203 r fdist;
#X obj 854 221 r fatt;
#X obj 894 221 r fdec;
#X obj 934 221 r fsus;
#X obj 975 221 r frel;
#X obj 736 73 PduinoController;
#X obj 735 150 s analog0;
#X obj 822 150 s analog1;
#X obj 1116 221 pack;
#X msg 1116 241 \$2 \$1;
#X obj 1033 266 route 1 7 21 22 23 24 25 26 27 28;
#X obj 1052 438 s ctl1;
#X obj 1033 457 s ctl0;
#X obj 1072 419 s ctl2;
#X obj 1092 400 s ctl3;
#X obj 1111 381 s ctl4;
#X obj 1131 362 s ctl5;
#X obj 1150 343 s ctl6;
#X obj 1169 324 s ctl7;
#X obj 1189 305 s ctl8;
#X obj 1208 286 s ctl9;
#X obj 1274 59 s MIDI_vel;
#X obj 1134 55 s MIDI_note;
#X obj 1207 123 send action1;
#X obj 39 59 receive next;
#X obj 1258 103 send strip_vel;
#X obj 335 59 receive next_vel;
#N canvas 130 350 1162 646 controls 0;
#X obj 386 16 r MIDI_note;
#X obj 313 71 s nereanote;
#X obj 458 16 r MIDI_vel;
#X obj 224 71 s nereavel;
#X obj 542 16 r note_1;
#X obj 651 19 r vel_1;
#X obj 74 133 r action1;
#X obj 213 136 r strip_vel;
#X obj 144 189 s next;
#X obj 213 191 s next_vel;
#X obj 224 39 r action2;
#X obj 543 41 s fnote;
#X obj 651 41 s fvel;
#X obj 846 233 s action2;
#X obj 846 122 * 100;
#X obj 926 164 + 21;
#X obj 926 187 s note_2;
#X obj 313 39 r note_2;
#X obj 846 150 moses 10;
#X obj 927 88 / 127;
#X obj 847 99 / 127;
#X obj 422 110 stripnote;
#X obj 846 185 t b;
#X obj 946 32 r analog3;
#X obj 1068 33 r analog5;
#X obj 137 134 r action3;
#X obj 306 125 r ctl0;
#X floatatom 300 154 5 0 0 0 - - -;
#X obj 139 162 bng 15 250 50 0 empty empty empty 17 7 0 10 -262144
-1 -1;
#X obj 1007 32 r analog4;
#X obj 884 32 r analog1;
#X obj 926 139 * 44;
#X obj 401 285 s fd1;
#X obj 441 286 s fd2;
#X obj 480 287 s fd3;
#X obj 521 286 s fd4;
#X obj 562 286 s fd5;
#X obj 386 191 r ctl2;
#X obj 431 191 r ctl3;
#X obj 473 191 r ctl4;
#X obj 520 192 r ctl5;
#X obj 566 193 r ctl6;
#X obj 890 178 t b;
#X msg 891 200 100;
#X msg 846 209 0;
#X msg 122 49 100;
#X obj 145 27 loadbang;
#X connect 0 0 21 0;
#X connect 2 0 21 1;
#X connect 4 0 11 0;
#X connect 5 0 12 0;
#X connect 10 0 3 0;
#X connect 14 0 18 0;
#X connect 15 0 16 0;
#X connect 17 0 1 0;
#X connect 18 0 22 0;
#X connect 18 1 42 0;
#X connect 19 0 31 0;
#X connect 20 0 14 0;
#X connect 22 0 44 0;
#X connect 23 0 19 0;
#X connect 25 0 28 0;
#X connect 26 0 27 0;
#X connect 27 0 9 0;
#X connect 28 0 8 0;
#X connect 30 0 20 0;
#X connect 31 0 15 0;
#X connect 37 0 32 0;
#X connect 38 0 33 0;
#X connect 39 0 34 0;
#X connect 40 0 35 0;
#X connect 41 0 36 0;
#X connect 42 0 43 0;
#X connect 43 0 13 0;
#X connect 44 0 13 0;
#X connect 45 0 27 0;
#X connect 46 0 45 0;
#X restore 644 681 pd controls;
#X obj 910 150 s analog2;
#X obj 998 150 s analog3;
#X obj 1085 150 s analog4;
#X obj 1173 150 s analog5;
#X obj 1210 31 notein;
#N canvas 749 94 450 504 secuencer 0;
#X obj 41 89 tgl 15 0 empty empty Start 17 7 0 10 -262144 -1 -1 1 1
;
#X floatatom 238 183 5 0 0 0 - - -;
#X obj 194 229 float;
#X obj 255 228 + 1;
#X floatatom 194 252 5 0 0 0 - - -;
#X obj 104 96 tgl 15 0 empty empty empty 17 7 0 10 -262144 -1 -1 1
1;
#X obj 119 96 tgl 15 0 empty empty empty 17 7 0 10 -262144 -1 -1 0
1;
#X obj 134 96 tgl 15 0 empty empty empty 17 7 0 10 -262144 -1 -1 1
1;
#X obj 149 96 tgl 15 0 empty empty empty 17 7 0 10 -262144 -1 -1 0
1;
#X obj 164 96 tgl 15 0 empty empty empty 17 7 0 10 -262144 -1 -1 1
1;
#X obj 179 96 tgl 15 0 empty empty empty 17 7 0 10 -262144 -1 -1 0
1;
#X obj 194 96 tgl 15 0 empty empty empty 17 7 0 10 -262144 -1 -1 1
1;
#X obj 209 96 tgl 15 0 empty empty empty 17 7 0 10 -262144 -1 -1 0
1;
#X obj 194 272 mod 8;
#X obj 107 372 i;
#X obj 72 308 sel 0 1 2 3 4 5 6 7;
#X obj 104 81 hradio 15 1 0 8 empty empty empty 0 -8 0 10 -262144 -1
-1 5;
#X obj 132 372 i;
#X obj 157 372 i;
#X obj 182 372 i;
#X obj 207 372 i;
#X obj 232 372 i;
#X obj 257 372 i;
#X obj 282 372 i;
#X obj 189 431 *;
#X obj 312 16 inlet;
#X obj 228 474 outlet;
#X obj 306 171 /;
#X obj 310 126 t b f;
#X obj 374 5 loadbang;
#X msg 374 26 120;
#X obj 20 54 hsl 201 15 40 240 0 0 empty empty Tempo -2 -8 0 10 -262144
-1 -1 17900 1;
#X obj 303 103 i;
#X obj 194 206 metro;
#X msg 410 27 100;
#X msg 295 147 60000;
#X floatatom 229 54 5 0 0 0 - - -;
#X obj 189 450 moses 1;
#X obj 280 181 / 4;
#X connect 0 0 33 0;
#X connect 1 0 33 1;
#X connect 2 0 3 0;
#X connect 2 0 4 0;
#X connect 3 0 2 1;
#X connect 4 0 13 0;
#X connect 5 0 14 1;
#X connect 6 0 17 1;
#X connect 7 0 18 1;
#X connect 8 0 19 1;
#X connect 9 0 20 1;
#X connect 10 0 21 1;
#X connect 11 0 22 1;
#X connect 12 0 23 1;
#X connect 13 0 15 0;
#X connect 13 0 16 0;
#X connect 14 0 24 0;
#X connect 15 0 14 0;
#X connect 15 1 17 0;
#X connect 15 2 18 0;
#X connect 15 3 19 0;
#X connect 15 4 20 0;
#X connect 15 5 21 0;
#X connect 15 6 22 0;
#X connect 15 7 23 0;
#X connect 17 0 24 0;
#X connect 18 0 24 0;
#X connect 19 0 24 0;
#X connect 20 0 24 0;
#X connect 21 0 24 0;
#X connect 22 0 24 0;
#X connect 23 0 24 0;
#X connect 24 0 37 0;
#X connect 25 0 24 1;
#X connect 27 0 38 0;
#X connect 28 0 35 0;
#X connect 28 1 27 1;
#X connect 29 0 30 0;
#X connect 29 0 34 0;
#X connect 30 0 31 0;
#X connect 31 0 36 0;
#X connect 32 0 28 0;
#X connect 33 0 2 0;
#X connect 34 0 24 1;
#X connect 35 0 27 0;
#X connect 36 0 32 0;
#X connect 37 1 26 0;
#X connect 38 0 1 0;
#X coords 0 -1 1 1 270 100 2 10 30;
#X restore 1148 562 pd secuencer;
#X obj 1148 541 r vel_seq;
#X obj 1148 671 s action3;
#X obj 1108 200 ctlin;
#X connect 0 0 4 0;
#X connect 0 1 5 0;
#X connect 1 0 2 0;
#X connect 1 1 51 0;
#X connect 2 0 49 0;
#X connect 3 0 0 2;
#X connect 8 0 6 2;
#X connect 9 0 6 3;
#X connect 10 0 6 0;
#X connect 11 0 6 1;
#X connect 12 0 6 4;
#X connect 13 0 6 5;
#X connect 14 0 7 0;
#X connect 15 0 7 1;
#X connect 16 0 7 2;
#X connect 17 0 7 3;
#X connect 18 0 7 4;
#X connect 19 0 7 5;
#X connect 20 0 7 6;
#X connect 21 0 7 7;
#X connect 22 0 7 8;
#X connect 23 0 7 9;
#X connect 24 0 7 10;
#X connect 25 0 7 11;
#X connect 26 0 7 12;
#X connect 27 0 7 13;
#X connect 28 0 7 14;
#X connect 29 0 7 15;
#X connect 30 0 7 16;
#X connect 31 0 32 0;
#X connect 31 1 33 0;
#X connect 31 2 54 0;
#X connect 31 3 55 0;
#X connect 31 4 56 0;
#X connect 31 5 57 0;
#X connect 34 0 35 0;
#X connect 35 0 36 0;
#X connect 36 0 38 0;
#X connect 36 1 37 0;
#X connect 36 2 39 0;
#X connect 36 3 40 0;
#X connect 36 4 41 0;
#X connect 36 5 42 0;
#X connect 36 6 43 0;
#X connect 36 7 44 0;
#X connect 36 8 45 0;
#X connect 36 9 46 0;
#X connect 50 0 0 0;
#X connect 52 0 0 1;
#X connect 58 0 1 0;
#X connect 58 0 48 0;
#X connect 58 1 1 1;
#X connect 58 1 47 0;
#X connect 59 0 61 0;
#X connect 60 0 59 0;
#X connect 62 0 34 0;
#X connect 62 1 34 1;
