#N canvas 183 131 450 300 10;
#X obj 63 8 inlet;
#X obj 63 141 outlet;
#X obj 63 41 mod 100;
#X obj 116 41 / 100;
#X obj 116 64 i;
#X obj 116 92 moses 10;
#X connect 0 0 2 0;
#X connect 0 0 3 0;
#X connect 2 0 1 0;
#X connect 3 0 4 0;
#X connect 4 0 5 0;
#X connect 5 1 2 0;
