#N struct 1006-f float x;
#N canvas 1003 503 450 421 10;
#X obj 103 162 Experiment3;
#X msg 90 91 read;
#X obj 170 54 bng 15 250 50 0 empty empty Initialize 17 7 0 10 -262144
-1 -1;
#X msg 103 187 1;
#X floatatom 146 29 5 0 0 0 - - -;
#X text 179 29 MIDI channel;
#X obj 197 190 cyclone/coll chords;
#C restore;
#X msg 197 163 dump;
#N canvas 1002 253 616 547 chords 0;
#X obj 75 362 outlet;
#X obj 67 165 until;
#X obj 80 248 list store;
#X obj 93 132 t b b l;
#X obj 67 190 f;
#X obj 105 191 + 1;
#X msg 119 165 0, f 2;
#X msg 66 219 get \$1 1;
#X obj 81 293 +;
#X obj 118 296 * 100;
#X obj 77 328 float;
#X obj 92 43 inlet;
#X obj 92 94 list split 4;
#X obj 92 68 list-abs/list-sort asc;
#X connect 1 0 4 0;
#X connect 2 0 8 0;
#X connect 2 1 1 1;
#X connect 2 1 10 0;
#X connect 3 0 1 0;
#X connect 3 1 6 0;
#X connect 3 2 2 1;
#X connect 4 0 5 0;
#X connect 4 0 7 0;
#X connect 5 0 4 1;
#X connect 6 0 4 1;
#X connect 6 0 8 1;
#X connect 7 0 2 0;
#X connect 8 0 9 0;
#X connect 8 0 10 1;
#X connect 9 0 8 1;
#X connect 10 0 0 0;
#X connect 11 0 13 0;
#X connect 12 0 3 0;
#X connect 12 2 3 0;
#X connect 13 0 12 0;
#X restore 198 219 pd chords;
#X msg 29 89 open;
#X obj 127 287 cyclone/coll channels;
#C restore;
#X msg 127 259 \$1 \$1;
#X text 45 54 Open collections;
#X obj 29 54 bng 15 250 50 0 empty empty empty 17 7 0 10 -262144 -1
-1;
#X obj 29 30 bng 15 250 50 0 empty empty empty 17 7 0 10 -262144 -1
-1;
#X text 45 29 Open MIDI file;
#X msg 173 94 clear;
#X obj 308 223 del 500;
#X obj 304 308 send ready;
#X msg 270 272 0;
#X msg 306 275 1;
#X obj 317 23 loadbang;
#X connect 0 0 3 0;
#X connect 0 1 7 0;
#X connect 0 2 11 0;
#X connect 1 0 0 0;
#X connect 2 0 0 1;
#X connect 2 0 16 0;
#X connect 2 0 19 0;
#X connect 3 0 0 3;
#X connect 4 0 0 2;
#X connect 6 0 8 0;
#X connect 6 3 17 0;
#X connect 7 0 6 0;
#X connect 8 0 0 4;
#X connect 9 0 0 5;
#X connect 9 0 10 0;
#X connect 11 0 10 0;
#X connect 13 0 9 0;
#X connect 14 0 1 0;
#X connect 14 0 19 0;
#X connect 16 0 10 0;
#X connect 17 0 20 0;
#X connect 19 0 18 0;
#X connect 20 0 18 0;
#X connect 21 0 19 0;
#X coords 0 -1 1 1 250 60 2 20 20;
