#N canvas 79 187 1601 524 10;
#X obj 160 243 pduino/arduino;
#X obj 28 28 bng 15 250 50 0 empty empty Show_devices 17 7 0 10 -262144
-1 -1;
#X msg 162 202 open \$1;
#X floatatom 115 48 5 0 0 0 Select_Port - -;
#X obj 153 174 i;
#X obj 28 47 bng 15 250 50 0 empty empty empty 17 7 0 10 -262144 -1
-1;
#X obj 161 294 spigot;
#X obj 161 322 route analog digital;
#X obj 28 67 tgl 15 0 empty empty Listen_Arduino 17 7 0 10 -262144
-1 -1 0 1;
#X obj 161 348 route 0 1 2 3 4 5;
#X obj 735 358 route 2 3 4 5 6 7 8 9 10 11 12 13 14 15 16 17 18 19
;
#X floatatom 333 30 5 0 0 0 - - -;
#X floatatom 333 47 5 0 0 0 - - -;
#X floatatom 333 64 5 0 0 0 - - -;
#X floatatom 406 31 5 0 0 0 - - -;
#X floatatom 406 48 5 0 0 0 - - -;
#X floatatom 406 65 5 0 0 0 - - -;
#X obj 290 455 tgl 15 0 empty empty empty 17 7 0 10 -262144 -1 -1 0
1;
#X obj 356 455 tgl 15 0 empty empty empty 17 7 0 10 -262144 -1 -1 0
1;
#X obj 422 455 tgl 15 0 empty empty empty 17 7 0 10 -262144 -1 -1 0
1;
#X obj 488 455 tgl 15 0 empty empty empty 17 7 0 10 -262144 -1 -1 0
1;
#X obj 554 455 tgl 15 0 empty empty empty 17 7 0 10 -262144 -1 -1 0
1;
#X obj 620 455 tgl 15 0 empty empty empty 17 7 0 10 -262144 -1 -1 0
1;
#X obj 686 455 tgl 15 0 empty empty empty 17 7 0 10 -262144 -1 -1 0
1;
#X obj 752 455 tgl 15 0 empty empty empty 17 7 0 10 -262144 -1 -1 0
1;
#X obj 818 455 tgl 15 0 empty empty empty 17 7 0 10 -262144 -1 -1 0
1;
#X obj 890 455 tgl 15 0 empty empty empty 17 7 0 10 -262144 -1 -1 0
1;
#X obj 962 455 tgl 15 0 empty empty empty 17 7 0 10 -262144 -1 -1 0
1;
#X obj 1034 455 tgl 15 0 empty empty empty 17 7 0 10 -262144 -1 -1
0 1;
#X obj 1106 455 tgl 15 0 empty empty empty 17 7 0 10 -262144 -1 -1
0 1;
#X obj 1178 455 tgl 15 0 empty empty empty 17 7 0 10 -262144 -1 -1
0 1;
#X obj 1250 455 tgl 15 0 empty empty empty 17 7 0 10 -262144 -1 -1
0 1;
#X obj 1322 455 tgl 15 0 empty empty empty 17 7 0 10 -262144 -1 -1
0 1;
#X obj 1394 455 tgl 15 0 empty empty empty 17 7 0 10 -262144 -1 -1
0 1;
#X obj 1466 455 tgl 15 0 empty empty empty 17 7 0 10 -262144 -1 -1
0 1;
#X text 189 32 Activate Analog;
#X text 516 32 Activate Digital;
#X floatatom 268 59 5 0 0 0 Analog_Pin - -;
#X floatatom 600 60 5 0 0 0 Digital_Pin - -;
#X obj 183 58 bng 15 250 50 0 empty empty empty 17 7 0 10 -262144 -1
-1;
#X obj 509 59 bng 15 250 50 0 empty empty empty 17 7 0 10 -262144 -1
-1;
#X obj 280 179 i;
#X obj 435 179 i;
#X obj 295 155 + 14;
#X msg 280 208 pinMode \$1 analog;
#X msg 435 208 pinMode \$1 input;
#X msg 109 202 devices;
#X obj 42 451 outlet;
#X obj 82 451 outlet;
#X obj 123 451 outlet;
#X obj 163 451 outlet;
#X obj 204 451 outlet;
#X obj 245 451 outlet;
#X obj 42 429 * 127;
#X obj 82 429 * 127;
#X obj 123 429 * 127;
#X obj 163 430 * 127;
#X obj 204 429 * 127;
#X obj 245 429 * 127;
#X connect 0 0 6 0;
#X connect 1 0 46 0;
#X connect 2 0 0 0;
#X connect 3 0 4 1;
#X connect 4 0 2 0;
#X connect 5 0 4 0;
#X connect 6 0 7 0;
#X connect 7 0 9 0;
#X connect 7 1 10 0;
#X connect 8 0 6 1;
#X connect 9 0 11 0;
#X connect 9 1 12 0;
#X connect 9 2 13 0;
#X connect 9 3 14 0;
#X connect 9 4 15 0;
#X connect 9 5 16 0;
#X connect 10 0 17 0;
#X connect 10 1 18 0;
#X connect 10 2 19 0;
#X connect 10 3 20 0;
#X connect 10 4 21 0;
#X connect 10 5 22 0;
#X connect 10 6 23 0;
#X connect 10 7 24 0;
#X connect 10 8 25 0;
#X connect 10 9 26 0;
#X connect 10 10 27 0;
#X connect 10 11 28 0;
#X connect 10 12 29 0;
#X connect 10 13 30 0;
#X connect 10 14 31 0;
#X connect 10 15 32 0;
#X connect 10 16 33 0;
#X connect 10 17 34 0;
#X connect 11 0 53 0;
#X connect 12 0 54 0;
#X connect 13 0 55 0;
#X connect 14 0 56 0;
#X connect 15 0 57 0;
#X connect 16 0 58 0;
#X connect 37 0 43 0;
#X connect 38 0 42 1;
#X connect 39 0 41 0;
#X connect 40 0 42 0;
#X connect 41 0 44 0;
#X connect 42 0 45 0;
#X connect 43 0 41 1;
#X connect 44 0 0 0;
#X connect 45 0 0 0;
#X connect 46 0 0 0;
#X connect 53 0 47 0;
#X connect 54 0 48 0;
#X connect 55 0 49 0;
#X connect 56 0 50 0;
#X connect 57 0 51 0;
#X connect 58 0 52 0;
#X coords 0 -1 1 1 445 70 2 20 20;
